<?xml version="1.0" standalone="no"?>
<!DOCTYPE svg PUBLIC "-//W3C//DTD SVG 20010904//EN"
 "http://www.w3.org/TR/2001/REC-SVG-20010904/DTD/svg10.dtd">
<svg version="1.0" xmlns="http://www.w3.org/2000/svg"
 width="16.000000pt" height="16.000000pt" viewBox="0 0 16.000000 16.000000"
 preserveAspectRatio="xMidYMid meet">
<metadata>
Created by potrace 1.11, written by Peter Selinger 2001-2013
</metadata>
<g transform="translate(0.000000,16.000000) scale(0.006154,-0.006154)"
fill="#000000" stroke="none">
<path d="M0 2500 c0 -88 2 -100 19 -110 13 -7 406 -10 1200 -10 l1181 0 0
-155 0 -155 -834 0 -835 0 -18 30 c-44 75 -44 76 -43 -827 0 -595 -3 -854 -10
-858 -8 -5 -7 -11 1 -21 9 -11 8 -18 -2 -30 -11 -14 -37 -15 -187 -12 -169 3
-174 4 -193 27 -18 22 -19 51 -19 851 l0 827 -46 7 c-26 3 -72 6 -103 6 -52 0
-58 2 -74 30 -10 17 -22 30 -28 30 -5 0 -9 -404 -9 -1065 l0 -1065 1300 0
1300 0 0 30 c0 23 -4 30 -20 30 -10 0 -24 9 -30 19 -7 13 -10 412 -10 1220 0
1077 -2 1201 -16 1215 -8 9 -25 16 -37 16 -12 0 -565 0 -1229 0 l-1208 -1 0
36 c0 31 -3 35 -25 35 -25 0 -25 0 -25 -100z m1245 -684 c19 -14 20 -27 20
-208 0 -106 1 -311 3 -455 l2 -262 98 -3 97 -3 3 -112 3 -113 93 0 c51 0 95 3
99 6 3 3 -7 17 -24 31 -28 24 -29 27 -29 114 0 72 3 91 16 96 8 3 20 1 27 -6
11 -11 218 -16 230 -5 11 11 -5 35 -34 50 l-29 15 0 412 c0 315 3 417 13 429
10 14 44 17 232 20 121 1 226 -1 233 -5 10 -7 12 -106 12 -483 -1 -260 1 -478
5 -484 13 -21 -9 -30 -75 -30 -65 0 -70 2 -90 30 -12 17 -28 30 -36 30 -13 0
-15 -22 -13 -141 2 -161 4 -159 -81 -159 -51 0 -57 2 -87 37 -17 21 -33 36
-36 33 -3 -3 -7 -68 -8 -145 -2 -83 -7 -143 -14 -147 -16 -12 -388 -9 -422 2
-40 14 -53 46 -53 130 0 79 -10 90 -77 90 -63 0 -109 17 -121 46 -7 13 -12 63
-12 108 l0 84 -79 3 c-132 6 -121 -41 -121 520 0 326 3 478 11 481 5 2 58 5
117 6 82 2 112 -1 127 -12z"/>
</g>
</svg>
